HIERARCHY
ROOT root
{
	OFFSET 0.000000 0.000000 0.000000
	CHANNELS 6 Xposition Yposition Zposition Zrotation Yrotation Xrotation
	JOINT lhip
	{
		OFFSET 0.058581 -0.082280 -0.017664
		CHANNELS 3 Zrotation Yrotation Xrotation
		JOINT lknee
		{
			OFFSET 0.043451 -0.386469 0.008037
			CHANNELS 3 Zrotation Yrotation Xrotation
			JOINT lankle
			{
				OFFSET -0.014790 -0.426874 -0.037428
				CHANNELS 3 Zrotation Yrotation Xrotation
				JOINT ltoe
				{
					OFFSET 0.041054 -0.060286 0.122042
					CHANNELS 3 Zrotation Yrotation Xrotation
					End Site
					{
						OFFSET 0.000000 0.000000 0.000000
					}
				}
			}
		}
	}
	JOINT rhip
	{
		OFFSET -0.060310 -0.090513 -0.013543
		CHANNELS 3 Zrotation Yrotation Xrotation
		JOINT rknee
		{
			OFFSET -0.043257 -0.383688 -0.004843
			CHANNELS 3 Zrotation Yrotation Xrotation
			JOINT rankle
			{
				OFFSET 0.019056 -0.420046 -0.034562
				CHANNELS 3 Zrotation Yrotation Xrotation
				JOINT rtoe
				{
					OFFSET -0.034840 -0.062106 0.130323
					CHANNELS 3 Zrotation Yrotation Xrotation
					End Site
					{
						OFFSET 0.000000 0.000000 0.000000
					}
				}
			}
		}
	}
	JOINT lowerback
	{
		OFFSET 0.004439 0.124404 -0.038385
		CHANNELS 3 Zrotation Yrotation Xrotation
		JOINT upperback
		{
			OFFSET 0.004488 0.137956 0.026820
			CHANNELS 3 Zrotation Yrotation Xrotation
			JOINT chest
			{
				OFFSET -0.002265 0.056032 0.002855
				CHANNELS 3 Zrotation Yrotation Xrotation
				JOINT lowerneck
				{
					OFFSET -0.013390 0.211636 -0.033468
					CHANNELS 3 Zrotation Yrotation Xrotation
					JOINT upperneck
					{
						OFFSET 0.010113 0.088937 0.050410
						CHANNELS 3 Zrotation Yrotation Xrotation
						End Site
						{
							OFFSET 0.000000 0.000000 0.000000
						}
					}
				}
				JOINT lclavicle
				{
					OFFSET 0.071702 0.114000 -0.018898
					CHANNELS 3 Zrotation Yrotation Xrotation
					JOINT lshoulder
					{
						OFFSET 0.122921 0.045205 -0.019046
						CHANNELS 3 Zrotation Yrotation Xrotation
						JOINT lelbow
						{
							OFFSET 0.255332 -0.015649 -0.022946
							CHANNELS 3 Zrotation Yrotation Xrotation
							JOINT lwrist
							{
								OFFSET 0.265709 0.012698 -0.007375
								CHANNELS 3 Zrotation Yrotation Xrotation
								End Site
								{
									OFFSET 0.000000 0.000000 0.000000
								}
							}
						}
					}
				}
				JOINT rclavicle
				{
					OFFSET -0.082954 0.112472 -0.023707
					CHANNELS 3 Zrotation Yrotation Xrotation
					JOINT rshoulder
					{
						OFFSET -0.113228 0.046853 -0.008472
						CHANNELS 3 Zrotation Yrotation Xrotation
						JOINT relbow
						{
							OFFSET -0.260127 -0.014369 -0.031269
							CHANNELS 3 Zrotation Yrotation Xrotation
							JOINT rwrist
							{
								OFFSET -0.269108 0.006794 -0.006027
								CHANNELS 3 Zrotation Yrotation Xrotation
								End Site
								{
									OFFSET 0.000000 0.000000 0.000000
								}
							}
						}
					}
				}
			}
		}
	}
}
MOTION
Frames: 16
Frame Time: 0.033333
-0.310287 -1.686849 0.987578 -174.705309 3.597570 88.457618 3.137680 7.193262 17.388709 -5.302896 -3.621770 1.557688 3.476941 11.716546 -27.265761 0.000000 -0.000000 0.000000 2.868670 6.270005 -33.666058 -0.981043 -10.623679 15.111954 4.523747 -10.808895 -19.845643 0.000000 -0.000000 0.000000 -0.268981 -7.189403 8.041124 1.039664 -1.037369 5.779347 0.517970 -4.444939 0.749260 4.217901 4.676659 -5.416132 1.810580 1.927751 -2.222990 -26.782062 -2.940870 4.782613 -60.687838 -13.152979 12.189596 14.295095 -29.960238 0.994422 2.439550 -6.389009 -7.947701 25.076068 1.617280 5.461122 60.331015 3.866127 14.110331 -13.424452 20.777395 -0.386391 8.727397 5.443582 -11.395082 
-0.312143 -1.661110 0.981140 -173.600877 3.269619 88.645552 3.623554 7.458096 19.084661 -5.537363 -4.735024 1.551056 3.047848 11.193343 -27.239586 0.000000 -0.000000 0.000000 2.229704 5.981812 -33.506730 -0.773292 -9.642968 12.770134 4.637061 -9.885737 -19.291560 0.000000 -0.000000 0.000000 -0.032231 -7.356054 7.805854 1.027933 -1.163460 5.722593 0.506052 -4.535616 1.010378 4.302728 4.501853 -5.847829 1.857896 1.688945 -2.392703 -26.908678 -3.031165 4.737940 -61.378630 -13.347235 12.474474 13.930559 -28.596197 2.039091 2.384668 -6.653728 -7.803420 25.223696 1.396729 5.495945 60.303366 3.428818 13.994189 -13.451039 20.249467 -0.223929 8.712999 5.391283 -11.805024 
-0.313647 -1.632901 0.976394 -172.528451 2.985988 88.940543 4.262095 7.576022 20.435153 -5.845561 -5.843438 2.274034 2.096186 10.606909 -26.800709 0.000000 -0.000000 0.000000 1.589123 5.730015 -33.393768 -0.816647 -9.311796 13.033435 4.382670 -9.568218 -18.685830 0.000000 -0.000000 0.000000 0.207637 -7.610008 7.347370 1.172298 -1.215632 5.852050 0.471358 -4.602991 0.849206 4.404304 4.216154 -6.018489 1.796195 1.470577 -2.417694 -27.310880 -2.923715 4.783690 -61.937953 -13.191321 12.508054 13.764527 -27.007019 2.585468 1.995853 -6.548760 -7.409956 25.410141 1.075273 5.568212 60.216074 3.027152 13.760054 -13.406136 19.673959 -0.023067 8.907101 5.222749 -11.902917 
-0.314803 -1.593094 0.974232 -171.222632 2.664386 89.364151 5.189092 7.508171 21.732434 -6.197148 -6.986498 4.150813 0.267781 9.650504 -25.107630 0.000000 -0.000000 0.000000 1.125241 5.400661 -32.977756 -1.369378 -9.658481 16.492736 3.454856 -10.470008 -17.019970 0.000000 -0.000000 0.000000 0.667314 -7.981167 6.523243 1.396568 -1.192676 5.848696 0.325761 -4.706873 0.629091 4.443237 3.660467 -6.472536 1.522209 1.265694 -1.911776 -27.797027 -2.187645 4.843180 -62.711726 -12.507361 12.195542 13.705486 -24.854354 3.201446 1.574948 -6.368187 -7.110473 25.620484 0.401556 5.397055 60.177086 2.513577 13.493989 -13.273460 18.939070 0.361864 9.089778 5.146789 -12.047560 
-0.314994 -1.566320 0.975443 -170.703951 2.552308 89.537453 5.777333 7.335610 22.441799 -6.284608 -7.380607 5.687897 -1.263122 8.930332 -23.108684 0.000000 -0.000000 0.000000 1.199687 5.003494 -32.340222 -1.782302 -10.829200 18.394211 2.549310 -11.662621 -15.083013 0.000000 -0.000000 0.000000 1.138887 -8.077879 5.876546 1.493794 -1.072678 5.868931 0.192366 -4.700716 0.464683 4.354204 3.255730 -6.684595 1.319994 1.184577 -1.538253 -28.060886 -1.450144 4.942724 -63.193400 -11.857328 11.765823 13.827411 -23.680022 3.459567 0.941809 -6.250790 -7.051488 25.715087 -0.109027 5.359753 60.165352 2.211153 13.258333 -13.213218 18.638624 0.620193 9.367733 5.112341 -12.286014 
-0.314106 -1.528152 0.980667 -170.793320 2.590444 89.818088 6.477683 6.908162 22.850824 -6.437987 -7.430207 8.427302 -3.393050 8.393478 -18.892196 0.000000 -0.000000 0.000000 1.492437 4.917727 -31.268151 -1.611610 -11.746685 19.766204 1.621228 -12.117565 -12.815087 0.000000 -0.000000 0.000000 1.854016 -7.889143 4.486873 1.706368 -0.664886 6.399309 0.047643 -4.507997 0.119995 4.183548 2.903579 -6.847435 1.077297 0.975817 -1.263255 -28.612214 -0.252234 5.042552 -63.643716 -10.704987 11.167922 14.374930 -22.366298 2.896490 0.075846 -5.777723 -7.067399 25.983791 -0.634456 5.625192 59.906271 2.047990 12.966085 -13.139416 18.387213 0.956650 9.688401 5.001407 -12.924556 
-0.312497 -1.488071 0.988508 -171.459898 2.719535 90.007967 6.675746 6.085602 22.356822 -6.518987 -6.598235 12.542107 -5.150668 8.568418 -13.336839 0.000000 -0.000000 0.000000 2.116554 5.606847 -29.661743 -1.204216 -11.611047 21.013988 0.467746 -11.589019 -11.783292 0.000000 -0.000000 0.000000 2.433397 -7.448057 2.766003 1.991879 -0.248232 7.175750 -0.055884 -4.200178 -0.296091 4.090749 2.800237 -6.685723 0.901349 0.794456 -0.809372 -28.903021 1.069805 5.127718 -64.060846 -9.124299 10.603041 15.069384 -21.455803 1.737349 -0.881167 -5.075165 -7.409530 26.083305 -0.820552 5.990135 59.809952 2.013744 12.844835 -13.168424 18.188094 1.534818 10.215730 4.827593 -13.818560 
-0.310169 -1.446210 0.996323 -171.900086 2.788142 89.756563 6.926056 5.079784 20.687531 -6.589446 -4.593673 19.248433 -7.312363 9.102252 -6.342920 0.000000 -0.000000 0.000000 3.113573 6.066762 -26.942231 -1.099994 -11.363077 21.618155 -1.660869 -11.152413 -12.284119 0.000000 -0.000000 0.000000 2.750550 -6.844314 1.651355 2.275412 -0.221456 7.302077 -0.189052 -4.032736 -0.562058 4.158678 3.003359 -6.507096 0.748618 0.376437 0.727685 -28.657942 2.444819 5.258615 -64.259194 -7.229782 9.915931 15.213551 -21.100399 1.274888 -2.297039 -4.727759 -7.990889 25.954157 -1.156647 6.161231 59.887408 2.084227 12.738181 -13.090584 18.354237 2.672140 10.944714 4.724533 -14.900168 
-0.307071 -1.405002 1.002549 -171.890334 2.651380 89.338226 7.192620 3.602730 17.539981 -6.640431 -1.905923 28.166246 -7.641406 9.608623 0.992392 0.000000 -0.000000 0.000000 3.983719 5.852196 -23.769943 -0.731269 -10.720428 21.783223 -3.858119 -11.419615 -13.782834 0.000000 -0.000000 0.000000 2.657253 -5.913035 1.046577 2.576174 -0.521791 6.983023 -0.338381 -4.100728 -0.660918 4.285093 2.887523 -6.351328 0.760130 -0.014708 2.670333 -28.206762 3.647972 5.499114 -63.711157 -5.515489 9.408247 14.562586 -21.566829 2.281119 -3.831780 -4.593603 -8.367969 25.984859 -1.656184 6.021992 59.743119 2.321746 12.778433 -13.015491 19.086777 3.386715 11.688404 4.520047 -15.814847 
-0.303128 -1.357744 1.007608 -171.740865 2.531280 89.433309 6.922838 -0.121362 11.531354 -5.587796 2.767762 39.439512 -6.950411 11.329962 10.005105 0.000000 -0.000000 0.000000 4.129265 7.080983 -19.731499 0.859082 -10.523947 20.075489 -5.722620 -13.710578 -15.255032 0.000000 -0.000000 0.000000 2.612448 -4.483574 -1.063729 2.926683 -0.859681 9.158964 -0.545360 -4.257526 -2.151071 4.340639 1.395392 -6.232038 1.209709 0.314846 5.077175 -27.117939 3.807335 6.461146 -63.585903 -4.463616 6.730748 14.103600 -22.407529 3.299648 -6.645447 -5.549810 -5.565616 25.186431 -0.933560 7.101578 60.550803 3.134573 11.777502 -13.412647 20.973097 4.364850 12.410175 5.560197 -17.253557 
-0.300679 -1.321672 1.011756 -171.691177 2.427396 88.524999 6.645449 -2.145772 7.440331 -5.010962 3.918880 47.133385 -6.020073 12.498720 9.073000 0.000000 -0.000000 0.000000 4.966090 6.250138 -15.417197 1.382600 -9.713189 18.593036 -6.048231 -13.681322 -16.667469 0.000000 -0.000000 0.000000 2.591464 -3.048913 -0.636558 2.952000 -1.121883 9.082809 -0.652372 -3.970228 -2.123756 4.441365 0.502742 -5.962420 1.490024 -0.232488 5.462691 -27.030649 3.794146 6.484911 -62.495132 -3.659279 6.538318 13.531812 -23.962715 4.329161 -5.935415 -5.481722 -5.901956 24.835921 -0.535413 6.870672 60.499004 3.431345 11.944979 -13.574230 23.120501 4.844827 10.903298 5.721311 -18.227000 
-0.298494 -1.287024 1.015470 -171.850781 2.030441 87.274974 5.900463 -3.609575 3.595515 -5.247157 3.637777 52.423735 -5.095911 11.739913 4.462163 0.000000 -0.000000 0.000000 5.563806 4.806837 -10.801041 1.656459 -8.344719 16.941946 -5.706571 -13.300354 -18.076696 0.000000 -0.000000 0.000000 2.207083 -1.464347 0.545265 2.762074 -1.306545 8.768931 -0.552494 -3.484219 -2.018990 4.484590 -0.425042 -5.564226 1.956627 -0.820500 5.295717 -26.919735 3.498782 6.406379 -61.694579 -3.052480 6.256509 13.404939 -25.842098 4.352098 -4.628342 -5.506479 -6.904511 24.381581 0.349646 6.622914 60.391450 3.836093 11.907766 -13.753533 25.232978 4.858765 9.480526 5.845631 -18.602019 
-0.296422 -1.253601 1.018742 -172.334325 1.387030 86.016163 4.726193 -5.074253 -0.131817 -5.731632 3.518084 54.881606 -3.787178 11.201436 -1.190289 0.000000 -0.000000 0.000000 5.738980 3.384735 -6.123820 1.764422 -6.970912 14.955213 -5.002975 -12.705087 -19.274903 0.000000 -0.000000 0.000000 1.613149 0.165146 2.041410 2.384894 -1.423680 8.082738 -0.370999 -2.862746 -1.663507 4.461436 -1.255553 -5.233806 2.467520 -1.251501 5.038247 -26.664488 3.310564 6.172107 -61.322549 -2.636349 6.005931 13.666914 -27.820371 3.782778 -3.267971 -5.516870 -8.277692 23.782598 1.310482 6.241881 60.268905 4.527028 11.993417 -13.877390 27.141035 4.942689 8.557478 6.029724 -18.740382 
-0.294731 -1.221084 1.021129 -173.363180 0.581188 85.069490 3.505496 -6.669337 -3.754627 -5.574852 4.662644 54.485989 -1.959092 12.056055 -6.918551 0.000000 -0.000000 0.000000 5.461567 2.333625 -1.961195 1.904490 -5.319766 13.207005 -4.145896 -12.182898 -20.306572 0.000000 -0.000000 0.000000 1.103076 1.915098 3.247492 1.868662 -1.356967 7.232222 -0.322854 -2.254110 -1.060445 4.452330 -1.867967 -5.092137 2.781374 -1.665406 5.011642 -26.209981 3.375456 5.835360 -61.331216 -2.433336 5.927194 14.060966 -29.647890 3.042612 -2.091243 -5.514198 -9.650360 23.071289 2.006818 5.718868 60.159827 5.541499 12.379777 -13.974657 28.844132 5.008118 8.125819 6.155704 -18.775504 
-0.293473 -1.189401 1.022444 -174.625683 -0.200736 84.441178 2.593372 -8.301171 -7.290947 -4.679642 6.681218 51.699300 -0.450844 13.911051 -11.326541 0.000000 -0.000000 0.000000 4.901831 1.345560 1.740580 2.073955 -3.856855 11.558811 -3.298385 -11.540039 -21.236649 0.000000 -0.000000 0.000000 0.810697 3.587014 4.125488 1.278681 -1.288680 6.513873 -0.389675 -1.727031 -0.537976 4.431903 -2.224141 -5.102254 2.901923 -2.065347 5.266516 -25.817712 3.541488 5.457958 -61.517648 -2.176314 6.026015 14.611088 -31.389561 2.496303 -1.387855 -5.671211 -10.624054 22.450192 2.587645 5.302166 59.916889 6.832960 12.808157 -14.054355 30.404663 5.046985 7.667454 6.344045 -18.720668 
-0.292189 -1.158634 1.022543 -175.709107 -0.785001 84.135494 2.157564 -9.661584 -10.760468 -3.652783 8.702592 47.045866 0.719191 15.718473 -14.056061 0.000000 -0.000000 0.000000 4.337452 0.246201 5.045176 2.206240 -2.626921 9.940767 -2.640146 -10.911824 -21.819894 0.000000 -0.000000 0.000000 0.687570 4.965255 4.735603 0.731851 -1.370687 5.907050 -0.482894 -1.326040 -0.177755 4.338728 -2.450051 -5.250521 2.947484 -2.268994 5.821962 -25.639704 3.742726 5.099349 -61.705228 -1.875923 6.194047 15.143091 -32.872231 2.384194 -0.753249 -5.906752 -11.358349 21.979238 3.120913 5.019132 59.525554 8.313476 13.170357 -14.032091 31.744528 5.133895 7.105495 6.594444 -18.795808 
